<svg version="1.1" id="Layer_1" xmlns="http://www.w3.org/2000/svg" xmlns:xlink="http://www.w3.org/1999/xlink" x="0px" y="0px"
	 width="100%" viewBox="0 0 255 255" enable-background="new 0 0 255 255" xml:space="preserve">
<path fill="#4DBCC4" opacity="1.000000" stroke="none" 
	d="
M256.000000,50.000000 
	C256.000000,102.020897 256.000000,154.041794 255.654236,206.736176 
	C252.675613,226.295395 243.229782,240.611389 226.144836,249.233414 
	C220.151352,252.258057 213.403427,253.787689 207.000000,256.000000 
	C154.979111,256.000000 102.958214,256.000000 50.263710,255.654175 
	C32.528248,253.690018 19.439545,245.081345 10.087668,231.256271 
	C6.003148,225.218018 3.966588,217.794464 0.999999,211.000000 
	C1.000000,155.979111 1.000000,100.958214 1.334637,45.284821 
	C4.831478,30.578115 11.753408,18.742144 23.909607,10.890584 
	C30.372852,6.716041 37.934277,4.241757 45.000000,0.999999 
	C100.020897,1.000000 155.041794,1.000000 210.715683,1.334955 
	C231.967575,6.268488 245.743652,18.649120 252.925369,38.378933 
	C254.290344,42.128822 254.992188,46.120098 256.000000,50.000000 
M144.043289,107.559959 
	C142.472916,108.793976 141.038437,110.279610 139.306702,111.214821 
	C134.112152,114.020119 134.404312,117.449562 136.752762,122.327385 
	C145.337189,140.157684 153.465210,158.207336 161.822281,176.147751 
	C164.271729,181.406082 165.642334,188.567856 169.818848,191.227448 
	C174.010818,193.896866 181.086746,192.164581 186.897751,192.138077 
	C199.297699,192.081497 205.108459,181.902405 198.767029,171.271820 
	C191.948288,159.841080 185.113159,148.413239 177.943634,137.202545 
	C175.614212,133.560120 175.767059,130.907486 178.028290,127.351685 
	C185.169510,116.122025 191.927673,104.649338 198.885956,93.302505 
	C201.825653,88.508774 202.381104,83.615944 199.529205,78.670578 
	C195.893997,72.366936 190.343460,71.320587 184.707214,75.724533 
	C171.330261,86.176765 157.962784,96.641129 144.043289,107.559959 
M109.098465,134.609299 
	C107.253075,136.034698 105.560532,137.742004 103.537170,138.839218 
	C91.480286,145.377335 85.471474,155.464737 84.194077,169.084976 
	C83.489403,176.598618 81.261002,183.969360 79.657372,191.704269 
	C104.494499,191.704269 128.640091,191.704269 153.620880,191.704269 
	C143.126266,168.965851 132.955795,146.929703 122.537468,124.356544 
	C117.575996,128.129425 113.613625,131.142532 109.098465,134.609299 
M54.832062,111.499969 
	C54.833195,133.816345 54.798244,156.132797 54.855759,178.449036 
	C54.874939,185.891251 58.307926,190.213791 64.871330,191.108444 
	C73.254219,151.830750 81.642258,112.528923 90.196732,72.447296 
	C82.412079,72.447296 75.304749,72.316513 68.204277,72.481262 
	C59.820530,72.675789 54.951363,77.661125 54.856304,86.018845 
	C54.763500,94.178246 54.833450,102.339516 54.832062,111.499969 
M142.325531,92.801674 
	C150.609650,86.363701 158.893768,79.925735 167.177887,73.487770 
	C147.026138,72.446358 127.402298,72.389168 107.780998,72.585098 
	C106.573708,72.597153 104.597565,74.429573 104.309265,75.713646 
	C100.590134,92.278900 97.091652,108.894028 93.625000,125.514816 
	C93.408455,126.553040 93.920433,127.743210 94.100014,128.905029 
	C95.170364,128.689972 95.564972,128.725372 95.796104,128.547867 
	C111.120857,116.780106 126.432411,104.995155 142.325531,92.801674 
z"/>
<path fill="#FFFFFF" opacity="1.000000" stroke="none" 
	d="
M207.468658,256.000000 
	C213.403427,253.787689 220.151352,252.258057 226.144836,249.233414 
	C243.229782,240.611389 252.675613,226.295395 255.654236,207.204834 
	C256.000000,223.260071 256.000000,239.520142 256.000000,256.000000 
	C239.979782,256.000000 223.958542,256.000000 207.468658,256.000000 
z"/>
<path fill="#FFFFFF" opacity="1.000000" stroke="none" 
	d="
M256.000000,49.531342 
	C254.992188,46.120098 254.290344,42.128822 252.925369,38.378933 
	C245.743652,18.649120 231.967575,6.268488 211.184341,1.334955 
	C225.929840,1.000000 240.859680,1.000000 256.000000,1.000000 
	C256.000000,17.020281 256.000000,33.041481 256.000000,49.531342 
z"/>
<path fill="#FFFFFF" opacity="1.000000" stroke="none" 
	d="
M0.999999,211.468658 
	C3.966588,217.794464 6.003148,225.218018 10.087668,231.256271 
	C19.439545,245.081345 32.528248,253.690018 49.795052,255.654175 
	C33.743061,256.000000 17.486120,256.000000 1.000000,256.000000 
	C1.000000,241.313232 1.000000,226.625275 0.999999,211.468658 
z"/>
<path fill="#FFFFFF" opacity="1.000000" stroke="none" 
	d="
M44.531342,0.999999 
	C37.934277,4.241757 30.372852,6.716041 23.909607,10.890584 
	C11.753408,18.742144 4.831478,30.578115 1.334637,44.816162 
	C1.000000,30.406635 1.000000,15.813272 1.000000,1.000000 
	C15.353479,1.000000 29.708082,1.000000 44.531342,0.999999 
z"/>
<path fill="#23128D" opacity="1.000000" stroke="none" 
	d="
M144.317383,107.330276 
	C157.962784,96.641129 171.330261,86.176765 184.707214,75.724533 
	C190.343460,71.320587 195.893997,72.366936 199.529205,78.670578 
	C202.381104,83.615944 201.825653,88.508774 198.885956,93.302505 
	C191.927673,104.649338 185.169510,116.122025 178.028290,127.351685 
	C175.767059,130.907486 175.614212,133.560120 177.943634,137.202545 
	C185.113159,148.413239 191.948288,159.841080 198.767029,171.271820 
	C205.108459,181.902405 199.297699,192.081497 186.897751,192.138077 
	C181.086746,192.164581 174.010818,193.896866 169.818848,191.227448 
	C165.642334,188.567856 164.271729,181.406082 161.822281,176.147751 
	C153.465210,158.207336 145.337189,140.157684 136.752762,122.327385 
	C134.404312,117.449562 134.112152,114.020119 139.306702,111.214821 
	C141.038437,110.279610 142.472916,108.793976 144.317383,107.330276 
z"/>
<path fill="#23118C" opacity="1.000000" stroke="none" 
	d="
M109.374863,134.382477 
	C113.613625,131.142532 117.575996,128.129425 122.537468,124.356544 
	C132.955795,146.929703 143.126266,168.965851 153.620880,191.704269 
	C128.640091,191.704269 104.494499,191.704269 79.657372,191.704269 
	C81.261002,183.969360 83.489403,176.598618 84.194077,169.084976 
	C85.471474,155.464737 91.480286,145.377335 103.537170,138.839218 
	C105.560532,137.742004 107.253075,136.034698 109.374863,134.382477 
z"/>
<path fill="#24128D" opacity="1.000000" stroke="none" 
	d="
M54.832008,110.999969 
	C54.833450,102.339516 54.763500,94.178246 54.856304,86.018845 
	C54.951363,77.661125 59.820530,72.675789 68.204277,72.481262 
	C75.304749,72.316513 82.412079,72.447296 90.196732,72.447296 
	C81.642258,112.528923 73.254219,151.830750 64.871330,191.108444 
	C58.307926,190.213791 54.874939,185.891251 54.855759,178.449036 
	C54.798244,156.132797 54.833195,133.816345 54.832008,110.999969 
z"/>
<path fill="#24158E" opacity="1.000000" stroke="none" 
	d="
M142.035324,93.006691 
	C126.432411,104.995155 111.120857,116.780106 95.796104,128.547867 
	C95.564972,128.725372 95.170364,128.689972 94.100014,128.905029 
	C93.920433,127.743210 93.408455,126.553040 93.625000,125.514816 
	C97.091652,108.894028 100.590134,92.278900 104.309265,75.713646 
	C104.597565,74.429573 106.573708,72.597153 107.780998,72.585098 
	C127.402298,72.389168 147.026138,72.446358 167.177887,73.487770 
	C158.893768,79.925735 150.609650,86.363701 142.035324,93.006691 
z"/>
</svg>